<svg width="15" height="9" viewBox="0 0 15 9" fill="none" xmlns="http://www.w3.org/2000/svg">
<g clip-path="url(#clip0_13_7315)">
<path d="M1.37507 5.30357L11.9822 5.30357L9.65186 7.63393C9.33043 7.95536 9.33043 8.4375 9.65186 8.75893C9.97328 9.08036 10.4554 9.08036 10.7769 8.75893L14.4733 5.0625C14.7947 4.74107 14.7947 4.25893 14.4733 3.9375L10.7769 0.241071C10.4554 -0.0803579 9.97328 -0.080358 9.65186 0.241071C9.33043 0.5625 9.33043 1.04464 9.65186 1.36607L11.9822 3.69643L1.37507 3.69643C0.973283 3.69643 0.571497 4.01786 0.571497 4.5C0.571497 4.98214 0.973283 5.30357 1.37507 5.30357Z" fill="#4089ED"/>
</g>
<defs>
<clipPath id="clip0_13_7315">
<rect width="14.1429" height="9" fill="white" transform="translate(14.7144 9) rotate(-180)"/>
</clipPath>
</defs>
</svg>
