<svg width="69" height="95" viewBox="0 0 69 95" fill="none" xmlns="http://www.w3.org/2000/svg">
<g clip-path="url(#clip0_13_6979)">
<path d="M65.8239 0H3.18396C1.89568 0 0.854248 1.02822 0.854248 2.30017V92.7074C0.854248 93.9794 1.89568 95.0076 3.18396 95.0076H65.8239C67.1122 95.0076 68.1536 93.9794 68.1536 92.7074V2.30017C68.1459 1.02822 67.1045 0 65.8239 0Z" fill="url(#paint0_linear_13_6979)"/>
<path d="M61.7123 4.09766H7.28802C6.0383 4.09766 5.02002 5.10303 5.02002 6.34451V81.0923C5.02002 82.3338 6.0383 83.3316 7.28802 83.3316H61.7123C62.9697 83.3316 63.9803 82.3262 63.9803 81.0923V6.34451C63.9803 5.10303 62.9697 4.09766 61.7123 4.09766Z" fill="white"/>
<path d="M45.6278 39.636H23.3798C22.3616 39.636 21.5361 38.821 21.5361 37.8156V15.8422C21.5361 14.8368 22.3616 14.0219 23.3798 14.0219H45.6278C46.6461 14.0219 47.4715 14.8368 47.4715 15.8422V37.808C47.4715 38.8134 46.6461 39.636 45.6278 39.636Z" fill="url(#paint1_linear_13_6979)"/>
<path d="M34.504 92.5474C36.3957 92.5474 37.9291 91.0334 37.9291 89.1657C37.9291 87.2981 36.3957 85.7841 34.504 85.7841C32.6123 85.7841 31.0789 87.2981 31.0789 89.1657C31.0789 91.0334 32.6123 92.5474 34.504 92.5474Z" fill="white"/>
<path d="M53.8898 51.015H15.1101C14.1304 51.015 13.3281 50.2229 13.3281 49.2556C13.3281 48.2883 14.1304 47.4962 15.1101 47.4962H53.8821C54.8618 47.4962 55.6641 48.2883 55.6641 49.2556C55.6641 50.2229 54.8695 51.015 53.8898 51.015Z" fill="url(#paint2_linear_13_6979)"/>
<path opacity="0.6" d="M47.3251 60.7641H14.4622C13.8374 60.7641 13.3359 60.2614 13.3359 59.6521V59.5302C13.3359 58.9133 13.8451 58.4182 14.4622 58.4182H47.3251C47.9499 58.4182 48.4513 58.9209 48.4513 59.5302V59.6521C48.4591 60.2614 47.9499 60.7641 47.3251 60.7641Z" fill="url(#paint3_linear_13_6979)"/>
<path opacity="0.3" d="M41.0687 66.9562H14.3541C13.791 66.9562 13.3281 66.4992 13.3281 65.9432V65.6081C13.3281 65.0521 13.791 64.5951 14.3541 64.5951H41.061C41.6241 64.5951 42.087 65.0521 42.087 65.6081V65.9432C42.087 66.4992 41.6241 66.9562 41.0687 66.9562Z" fill="url(#paint4_linear_13_6979)"/>
<path opacity="0.6" d="M44.4322 72.6914H14.4159C13.8219 72.6914 13.3359 72.2116 13.3359 71.6251V71.4119C13.3359 70.8254 13.8219 70.3456 14.4159 70.3456H44.4322C45.0262 70.3456 45.5122 70.8254 45.5122 71.4119V71.6251C45.5122 72.204 45.0262 72.6914 44.4322 72.6914Z" fill="url(#paint5_linear_13_6979)"/>
<path d="M34.5707 26.1208C36.7983 26.1208 38.604 24.3142 38.604 22.0854C38.604 19.8567 36.7983 18.05 34.5707 18.05C32.3431 18.05 30.5374 19.8567 30.5374 22.0854C30.5374 24.3142 32.3347 26.1208 34.5707 26.1208ZM34.5707 28.1385C31.879 28.1385 26.5042 29.4893 26.5042 32.1739V33.187C26.5042 33.7442 26.9598 34.2 27.5167 34.2H41.6416C42.1985 34.2 42.6542 33.7442 42.6542 33.187V32.1739C42.6373 29.4977 37.2624 28.1385 34.5707 28.1385Z" fill="white"/>
</g>
<defs>
<linearGradient id="paint0_linear_13_6979" x1="4.93123" y1="45.0301" x2="68.1987" y2="50.4539" gradientUnits="userSpaceOnUse">
<stop stop-color="#6CBCFC"/>
<stop offset="1" stop-color="#458DFC"/>
</linearGradient>
<linearGradient id="paint1_linear_13_6979" x1="19.5249" y1="19.2923" x2="49.3196" y2="34.6685" gradientUnits="userSpaceOnUse">
<stop stop-color="#B0F4FF"/>
<stop offset="0.0856277" stop-color="#A3F0FE"/>
<stop offset="0.2972" stop-color="#8AE7FD"/>
<stop offset="0.5161" stop-color="#77E1FD"/>
<stop offset="0.7451" stop-color="#6DDDFC"/>
<stop offset="1" stop-color="#69DCFC"/>
</linearGradient>
<linearGradient id="paint2_linear_13_6979" x1="55.6678" y1="49.257" x2="13.3354" y2="49.257" gradientUnits="userSpaceOnUse">
<stop stop-color="#6CBCFC"/>
<stop offset="1" stop-color="#458DFC"/>
</linearGradient>
<linearGradient id="paint3_linear_13_6979" x1="48.4569" y1="59.5878" x2="13.3355" y2="59.5878" gradientUnits="userSpaceOnUse">
<stop stop-color="#6CBCFC"/>
<stop offset="1" stop-color="#458DFC"/>
</linearGradient>
<linearGradient id="paint4_linear_13_6979" x1="42.0878" y1="65.7799" x2="13.3354" y2="65.7799" gradientUnits="userSpaceOnUse">
<stop stop-color="#6CBCFC"/>
<stop offset="1" stop-color="#458DFC"/>
</linearGradient>
<linearGradient id="paint5_linear_13_6979" x1="45.5116" y1="71.5124" x2="13.3355" y2="71.5124" gradientUnits="userSpaceOnUse">
<stop stop-color="#6CBCFC"/>
<stop offset="1" stop-color="#458DFC"/>
</linearGradient>
<clipPath id="clip0_13_6979">
<rect width="67.2917" height="95" fill="white" transform="translate(0.854248)"/>
</clipPath>
</defs>
</svg>
