<svg width="32" height="33" viewBox="0 0 32 33" fill="none" xmlns="http://www.w3.org/2000/svg">
<g id="List">
<path id="Vector" d="M28 15.5V17.5C28 17.7652 27.8946 18.0196 27.7071 18.2071C27.5196 18.3946 27.2652 18.5 27 18.5H5C4.73478 18.5 4.48043 18.3946 4.29289 18.2071C4.10536 18.0196 4 17.7652 4 17.5V15.5C4 15.2348 4.10536 14.9804 4.29289 14.7929C4.48043 14.6054 4.73478 14.5 5 14.5H27C27.2652 14.5 27.5196 14.6054 27.7071 14.7929C27.8946 14.9804 28 15.2348 28 15.5ZM27 22.5H5C4.73478 22.5 4.48043 22.6054 4.29289 22.7929C4.10536 22.9804 4 23.2348 4 23.5V25.5C4 25.7652 4.10536 26.0196 4.29289 26.2071C4.48043 26.3946 4.73478 26.5 5 26.5H27C27.2652 26.5 27.5196 26.3946 27.7071 26.2071C27.8946 26.0196 28 25.7652 28 25.5V23.5C28 23.2348 27.8946 22.9804 27.7071 22.7929C27.5196 22.6054 27.2652 22.5 27 22.5ZM27 6.5H5C4.73478 6.5 4.48043 6.60536 4.29289 6.79289C4.10536 6.98043 4 7.23478 4 7.5V9.5C4 9.76522 4.10536 10.0196 4.29289 10.2071C4.48043 10.3946 4.73478 10.5 5 10.5H27C27.2652 10.5 27.5196 10.3946 27.7071 10.2071C27.8946 10.0196 28 9.76522 28 9.5V7.5C28 7.23478 27.8946 6.98043 27.7071 6.79289C27.5196 6.60536 27.2652 6.5 27 6.5Z" fill="#458FF6"/>
</g>
</svg>
