<svg width="93" height="91" viewBox="0 0 93 91" fill="none" xmlns="http://www.w3.org/2000/svg">
<g clip-path="url(#clip0_13_6570)">
<path d="M56.7267 43.8151L47.6489 52.4802L9.31455 89.0661C8.30816 90.0289 7.01714 90.5103 5.72611 90.5103C4.31309 90.5103 2.90008 89.9367 1.87336 88.7998C-0.149588 86.5669 0.114717 83.0743 2.44263 81.1692L47.6489 44.3272L52.63 40.2712L56.7267 43.8151Z" fill="url(#paint0_linear_13_6570)"/>
<path d="M47.2523 52.9207L38.3168 61.4424L37.4934 52.6851L42.383 48.7008L47.2523 52.9207Z" fill="#3A81D6" fill-opacity="0.8"/>
<path d="M92.4892 30.4078C92.4892 46.9288 79.1926 60.3259 62.8058 60.3259C52.4775 60.3259 43.3794 55.0101 38.0628 46.9391C34.942 42.2071 33.1223 36.5225 33.1223 30.4078C33.1223 13.8868 46.4189 0.5 62.8058 0.5C70.2063 0.5 76.9664 3.22448 82.161 7.73114C88.484 13.2211 92.4892 21.3433 92.4892 30.4078Z" fill="url(#paint1_linear_13_6570)"/>
<path d="M62.8056 53.7093C75.5781 53.7093 85.9323 43.2768 85.9323 30.4078C85.9323 17.5387 75.5781 7.10632 62.8056 7.10632C50.0331 7.10632 39.679 17.5387 39.679 30.4078C39.679 43.2768 50.0331 53.7093 62.8056 53.7093Z" fill="white"/>
<path opacity="0.06" d="M92.4892 30.4078C92.4892 46.9288 79.1926 60.3258 62.8057 60.3258C52.4775 60.3258 43.3793 55.01 38.0627 46.939C71.5379 44.194 80.3616 15.6177 82.1711 7.73108C88.4839 13.221 92.4892 21.3432 92.4892 30.4078Z" fill="#1A6FB5" fill-opacity="0.5"/>
<path d="M62.8057 30.459C65.4894 30.459 67.6648 28.2671 67.6648 25.5631C67.6648 22.8591 65.4894 20.6672 62.8057 20.6672C60.122 20.6672 57.9465 22.8591 57.9465 25.5631C57.9465 28.2671 60.1118 30.459 62.8057 30.459ZM62.8057 32.9069C59.5629 32.9069 53.0874 34.5457 53.0874 37.8028V39.0319C53.0874 39.7079 53.6363 40.261 54.3073 40.261H71.3244C71.9953 40.261 72.5443 39.7079 72.5443 39.0319V37.8028C72.524 34.5559 66.0485 32.9069 62.8057 32.9069Z" fill="url(#paint2_linear_13_6570)"/>
</g>
<defs>
<linearGradient id="paint0_linear_13_6570" x1="6.18589" y1="84.8265" x2="54.4356" y2="41.2922" gradientUnits="userSpaceOnUse">
<stop stop-color="#67C3F3"/>
<stop offset="1" stop-color="#5A98F2"/>
</linearGradient>
<linearGradient id="paint1_linear_13_6570" x1="50.5285" y1="2.61336" x2="73.2929" y2="53.4053" gradientUnits="userSpaceOnUse">
<stop stop-color="#67C3F3"/>
<stop offset="1" stop-color="#5A98F2"/>
</linearGradient>
<linearGradient id="paint2_linear_13_6570" x1="55.7798" y1="28.8947" x2="73.4307" y2="37.439" gradientUnits="userSpaceOnUse">
<stop stop-color="#B0F4FF"/>
<stop offset="0.071077" stop-color="#A6F1FF"/>
<stop offset="0.2937" stop-color="#8BE8FD"/>
<stop offset="0.5209" stop-color="#78E1FD"/>
<stop offset="0.7536" stop-color="#6DDDFC"/>
<stop offset="1" stop-color="#69DCFC"/>
</linearGradient>
<clipPath id="clip0_13_6570">
<rect width="91.978" height="90" fill="white" transform="translate(0.510986 0.5)"/>
</clipPath>
</defs>
</svg>
