<svg width="100" height="111" viewBox="0 0 100 111" fill="none" xmlns="http://www.w3.org/2000/svg">
<g opacity="0.3">
<mask id="mask0_13_7343" style="mask-type:alpha" maskUnits="userSpaceOnUse" x="0" y="0" width="11" height="11">
<path d="M5.22838 10.7698C8.11594 10.7698 10.4568 8.53625 10.4568 5.7811C10.4568 3.02595 8.11594 0.79248 5.22838 0.79248C2.34082 0.79248 0 3.02595 0 5.7811C0 8.53625 2.34082 10.7698 5.22838 10.7698Z" fill="url(#paint0_linear_13_7343)"/>
</mask>
<g mask="url(#mask0_13_7343)">
<path d="M5.22838 10.7698C8.11594 10.7698 10.4568 8.53625 10.4568 5.7811C10.4568 3.02595 8.11594 0.79248 5.22838 0.79248C2.34082 0.79248 0 3.02595 0 5.7811C0 8.53625 2.34082 10.7698 5.22838 10.7698Z" fill="url(#paint1_linear_13_7343)"/>
</g>
<mask id="mask1_13_7343" style="mask-type:alpha" maskUnits="userSpaceOnUse" x="30" y="0" width="11" height="11">
<path d="M35.5094 10.7698C38.397 10.7698 40.7378 8.53625 40.7378 5.7811C40.7378 3.02595 38.397 0.79248 35.5094 0.79248C32.6218 0.79248 30.281 3.02595 30.281 5.7811C30.281 8.53625 32.6218 10.7698 35.5094 10.7698Z" fill="url(#paint2_linear_13_7343)"/>
</mask>
<g mask="url(#mask1_13_7343)">
<path d="M35.5094 10.7698C38.397 10.7698 40.7378 8.53625 40.7378 5.7811C40.7378 3.02595 38.397 0.79248 35.5094 0.79248C32.6218 0.79248 30.281 3.02595 30.281 5.7811C30.281 8.53625 32.6218 10.7698 35.5094 10.7698Z" fill="url(#paint3_linear_13_7343)"/>
</g>
<mask id="mask2_13_7343" style="mask-type:alpha" maskUnits="userSpaceOnUse" x="60" y="0" width="12" height="11">
<path d="M65.7904 10.7698C68.678 10.7698 71.0188 8.53625 71.0188 5.7811C71.0188 3.02595 68.678 0.79248 65.7904 0.79248C62.9028 0.79248 60.562 3.02595 60.562 5.7811C60.562 8.53625 62.9028 10.7698 65.7904 10.7698Z" fill="url(#paint4_linear_13_7343)"/>
</mask>
<g mask="url(#mask2_13_7343)">
<path d="M65.7904 10.7698C68.678 10.7698 71.0188 8.53625 71.0188 5.7811C71.0188 3.02595 68.678 0.79248 65.7904 0.79248C62.9028 0.79248 60.562 3.02595 60.562 5.7811C60.562 8.53625 62.9028 10.7698 65.7904 10.7698Z" fill="url(#paint5_linear_13_7343)"/>
</g>
<mask id="mask3_13_7343" style="mask-type:alpha" maskUnits="userSpaceOnUse" x="90" y="0" width="12" height="11">
<path d="M96.0717 10.7698C98.9592 10.7698 101.3 8.53625 101.3 5.7811C101.3 3.02595 98.9592 0.79248 96.0717 0.79248C93.1841 0.79248 90.8433 3.02595 90.8433 5.7811C90.8433 8.53625 93.1841 10.7698 96.0717 10.7698Z" fill="url(#paint6_linear_13_7343)"/>
</mask>
<g mask="url(#mask3_13_7343)">
<path d="M96.0717 10.7698C98.9592 10.7698 101.3 8.53625 101.3 5.7811C101.3 3.02595 98.9592 0.79248 96.0717 0.79248C93.1841 0.79248 90.8433 3.02595 90.8433 5.7811C90.8433 8.53625 93.1841 10.7698 96.0717 10.7698Z" fill="url(#paint7_linear_13_7343)"/>
</g>
<mask id="mask4_13_7343" style="mask-type:alpha" maskUnits="userSpaceOnUse" x="0" y="25" width="11" height="11">
<path d="M5.22838 35.8169C8.11594 35.8169 10.4568 33.5834 10.4568 30.8283C10.4568 28.0731 8.11594 25.8397 5.22838 25.8397C2.34082 25.8397 0 28.0731 0 30.8283C0 33.5834 2.34082 35.8169 5.22838 35.8169Z" fill="url(#paint8_linear_13_7343)"/>
</mask>
<g mask="url(#mask4_13_7343)">
<path d="M5.22838 35.8169C8.11594 35.8169 10.4568 33.5834 10.4568 30.8283C10.4568 28.0731 8.11594 25.8397 5.22838 25.8397C2.34082 25.8397 0 28.0731 0 30.8283C0 33.5834 2.34082 35.8169 5.22838 35.8169Z" fill="url(#paint9_linear_13_7343)"/>
</g>
<mask id="mask5_13_7343" style="mask-type:alpha" maskUnits="userSpaceOnUse" x="30" y="25" width="11" height="11">
<path d="M35.5094 35.8169C38.397 35.8169 40.7378 33.5834 40.7378 30.8283C40.7378 28.0731 38.397 25.8397 35.5094 25.8397C32.6218 25.8397 30.281 28.0731 30.281 30.8283C30.281 33.5834 32.6218 35.8169 35.5094 35.8169Z" fill="url(#paint10_linear_13_7343)"/>
</mask>
<g mask="url(#mask5_13_7343)">
<path d="M35.5094 35.8169C38.397 35.8169 40.7378 33.5834 40.7378 30.8283C40.7378 28.0731 38.397 25.8397 35.5094 25.8397C32.6218 25.8397 30.281 28.0731 30.281 30.8283C30.281 33.5834 32.6218 35.8169 35.5094 35.8169Z" fill="url(#paint11_linear_13_7343)"/>
</g>
<mask id="mask6_13_7343" style="mask-type:alpha" maskUnits="userSpaceOnUse" x="60" y="25" width="12" height="11">
<path d="M65.7904 35.8169C68.678 35.8169 71.0188 33.5834 71.0188 30.8283C71.0188 28.0731 68.678 25.8397 65.7904 25.8397C62.9028 25.8397 60.562 28.0731 60.562 30.8283C60.562 33.5834 62.9028 35.8169 65.7904 35.8169Z" fill="url(#paint12_linear_13_7343)"/>
</mask>
<g mask="url(#mask6_13_7343)">
<path d="M65.7904 35.8169C68.678 35.8169 71.0188 33.5834 71.0188 30.8283C71.0188 28.0731 68.678 25.8397 65.7904 25.8397C62.9028 25.8397 60.562 28.0731 60.562 30.8283C60.562 33.5834 62.9028 35.8169 65.7904 35.8169Z" fill="url(#paint13_linear_13_7343)"/>
</g>
<mask id="mask7_13_7343" style="mask-type:alpha" maskUnits="userSpaceOnUse" x="90" y="25" width="12" height="11">
<path d="M96.0717 35.8169C98.9592 35.8169 101.3 33.5834 101.3 30.8283C101.3 28.0731 98.9592 25.8397 96.0717 25.8397C93.1841 25.8397 90.8433 28.0731 90.8433 30.8283C90.8433 33.5834 93.1841 35.8169 96.0717 35.8169Z" fill="url(#paint14_linear_13_7343)"/>
</mask>
<g mask="url(#mask7_13_7343)">
<path d="M96.0717 35.8169C98.9592 35.8169 101.3 33.5834 101.3 30.8283C101.3 28.0731 98.9592 25.8397 96.0717 25.8397C93.1841 25.8397 90.8433 28.0731 90.8433 30.8283C90.8433 33.5834 93.1841 35.8169 96.0717 35.8169Z" fill="url(#paint15_linear_13_7343)"/>
</g>
<mask id="mask8_13_7343" style="mask-type:alpha" maskUnits="userSpaceOnUse" x="0" y="50" width="11" height="11">
<path d="M5.22838 60.8121C8.11594 60.8121 10.4568 58.5786 10.4568 55.8234C10.4568 53.0683 8.11594 50.8348 5.22838 50.8348C2.34082 50.8348 0 53.0683 0 55.8234C0 58.5786 2.34082 60.8121 5.22838 60.8121Z" fill="url(#paint16_linear_13_7343)"/>
</mask>
<g mask="url(#mask8_13_7343)">
<path d="M5.22838 60.8121C8.11594 60.8121 10.4568 58.5786 10.4568 55.8234C10.4568 53.0683 8.11594 50.8348 5.22838 50.8348C2.34082 50.8348 0 53.0683 0 55.8234C0 58.5786 2.34082 60.8121 5.22838 60.8121Z" fill="url(#paint17_linear_13_7343)"/>
</g>
<mask id="mask9_13_7343" style="mask-type:alpha" maskUnits="userSpaceOnUse" x="30" y="50" width="11" height="11">
<path d="M35.5094 60.8121C38.397 60.8121 40.7378 58.5786 40.7378 55.8234C40.7378 53.0683 38.397 50.8348 35.5094 50.8348C32.6218 50.8348 30.281 53.0683 30.281 55.8234C30.281 58.5786 32.6218 60.8121 35.5094 60.8121Z" fill="url(#paint18_linear_13_7343)"/>
</mask>
<g mask="url(#mask9_13_7343)">
<path d="M35.5094 60.8121C38.397 60.8121 40.7378 58.5786 40.7378 55.8234C40.7378 53.0683 38.397 50.8348 35.5094 50.8348C32.6218 50.8348 30.281 53.0683 30.281 55.8234C30.281 58.5786 32.6218 60.8121 35.5094 60.8121Z" fill="url(#paint19_linear_13_7343)"/>
</g>
<mask id="mask10_13_7343" style="mask-type:alpha" maskUnits="userSpaceOnUse" x="60" y="50" width="12" height="11">
<path d="M65.7904 60.8121C68.678 60.8121 71.0188 58.5786 71.0188 55.8234C71.0188 53.0683 68.678 50.8348 65.7904 50.8348C62.9028 50.8348 60.562 53.0683 60.562 55.8234C60.562 58.5786 62.9028 60.8121 65.7904 60.8121Z" fill="url(#paint20_linear_13_7343)"/>
</mask>
<g mask="url(#mask10_13_7343)">
<path d="M65.7904 60.8121C68.678 60.8121 71.0188 58.5786 71.0188 55.8234C71.0188 53.0683 68.678 50.8348 65.7904 50.8348C62.9028 50.8348 60.562 53.0683 60.562 55.8234C60.562 58.5786 62.9028 60.8121 65.7904 60.8121Z" fill="url(#paint21_linear_13_7343)"/>
</g>
<mask id="mask11_13_7343" style="mask-type:alpha" maskUnits="userSpaceOnUse" x="90" y="50" width="12" height="11">
<path d="M96.0717 60.8121C98.9592 60.8121 101.3 58.5786 101.3 55.8234C101.3 53.0683 98.9592 50.8348 96.0717 50.8348C93.1841 50.8348 90.8433 53.0683 90.8433 55.8234C90.8433 58.5786 93.1841 60.8121 96.0717 60.8121Z" fill="url(#paint22_linear_13_7343)"/>
</mask>
<g mask="url(#mask11_13_7343)">
<path d="M96.0717 60.8121C98.9592 60.8121 101.3 58.5786 101.3 55.8234C101.3 53.0683 98.9592 50.8348 96.0717 50.8348C93.1841 50.8348 90.8433 53.0683 90.8433 55.8234C90.8433 58.5786 93.1841 60.8121 96.0717 60.8121Z" fill="url(#paint23_linear_13_7343)"/>
</g>
<mask id="mask12_13_7343" style="mask-type:alpha" maskUnits="userSpaceOnUse" x="0" y="75" width="11" height="11">
<path d="M5.22838 85.8592C8.11594 85.8592 10.4568 83.6256 10.4568 80.8705C10.4568 78.1154 8.11594 75.8819 5.22838 75.8819C2.34082 75.8819 0 78.1154 0 80.8705C0 83.6256 2.34082 85.8592 5.22838 85.8592Z" fill="url(#paint24_linear_13_7343)"/>
</mask>
<g mask="url(#mask12_13_7343)">
<path d="M5.22838 85.8592C8.11594 85.8592 10.4568 83.6256 10.4568 80.8705C10.4568 78.1154 8.11594 75.8819 5.22838 75.8819C2.34082 75.8819 0 78.1154 0 80.8705C0 83.6256 2.34082 85.8592 5.22838 85.8592Z" fill="url(#paint25_linear_13_7343)"/>
</g>
<mask id="mask13_13_7343" style="mask-type:alpha" maskUnits="userSpaceOnUse" x="30" y="75" width="11" height="11">
<path d="M35.5094 85.8592C38.397 85.8592 40.7378 83.6256 40.7378 80.8705C40.7378 78.1154 38.397 75.8819 35.5094 75.8819C32.6218 75.8819 30.281 78.1154 30.281 80.8705C30.281 83.6256 32.6218 85.8592 35.5094 85.8592Z" fill="url(#paint26_linear_13_7343)"/>
</mask>
<g mask="url(#mask13_13_7343)">
<path d="M35.5094 85.8592C38.397 85.8592 40.7378 83.6256 40.7378 80.8705C40.7378 78.1154 38.397 75.8819 35.5094 75.8819C32.6218 75.8819 30.281 78.1154 30.281 80.8705C30.281 83.6256 32.6218 85.8592 35.5094 85.8592Z" fill="url(#paint27_linear_13_7343)"/>
</g>
<mask id="mask14_13_7343" style="mask-type:alpha" maskUnits="userSpaceOnUse" x="60" y="75" width="12" height="11">
<path d="M65.7904 85.8592C68.678 85.8592 71.0188 83.6256 71.0188 80.8705C71.0188 78.1154 68.678 75.8819 65.7904 75.8819C62.9028 75.8819 60.562 78.1154 60.562 80.8705C60.562 83.6256 62.9028 85.8592 65.7904 85.8592Z" fill="url(#paint28_linear_13_7343)"/>
</mask>
<g mask="url(#mask14_13_7343)">
<path d="M65.7904 85.8592C68.678 85.8592 71.0188 83.6256 71.0188 80.8705C71.0188 78.1154 68.678 75.8819 65.7904 75.8819C62.9028 75.8819 60.562 78.1154 60.562 80.8705C60.562 83.6256 62.9028 85.8592 65.7904 85.8592Z" fill="url(#paint29_linear_13_7343)"/>
</g>
<mask id="mask15_13_7343" style="mask-type:alpha" maskUnits="userSpaceOnUse" x="90" y="75" width="12" height="11">
<path d="M96.0717 85.8592C98.9592 85.8592 101.3 83.6256 101.3 80.8705C101.3 78.1154 98.9592 75.8819 96.0717 75.8819C93.1841 75.8819 90.8433 78.1154 90.8433 80.8705C90.8433 83.6256 93.1841 85.8592 96.0717 85.8592Z" fill="url(#paint30_linear_13_7343)"/>
</mask>
<g mask="url(#mask15_13_7343)">
<path d="M96.0717 85.8592C98.9592 85.8592 101.3 83.6256 101.3 80.8705C101.3 78.1154 98.9592 75.8819 96.0717 75.8819C93.1841 75.8819 90.8433 78.1154 90.8433 80.8705C90.8433 83.6256 93.1841 85.8592 96.0717 85.8592Z" fill="url(#paint31_linear_13_7343)"/>
</g>
<mask id="mask16_13_7343" style="mask-type:alpha" maskUnits="userSpaceOnUse" x="0" y="100" width="11" height="11">
<path d="M5.22838 110.854C8.11594 110.854 10.4568 108.621 10.4568 105.866C10.4568 103.111 8.11594 100.877 5.22838 100.877C2.34082 100.877 0 103.111 0 105.866C0 108.621 2.34082 110.854 5.22838 110.854Z" fill="url(#paint32_linear_13_7343)"/>
</mask>
<g mask="url(#mask16_13_7343)">
<path d="M5.22838 110.854C8.11594 110.854 10.4568 108.621 10.4568 105.866C10.4568 103.111 8.11594 100.877 5.22838 100.877C2.34082 100.877 0 103.111 0 105.866C0 108.621 2.34082 110.854 5.22838 110.854Z" fill="url(#paint33_linear_13_7343)"/>
</g>
<mask id="mask17_13_7343" style="mask-type:alpha" maskUnits="userSpaceOnUse" x="30" y="100" width="11" height="11">
<path d="M35.5094 110.854C38.397 110.854 40.7378 108.621 40.7378 105.866C40.7378 103.111 38.397 100.877 35.5094 100.877C32.6218 100.877 30.281 103.111 30.281 105.866C30.281 108.621 32.6218 110.854 35.5094 110.854Z" fill="url(#paint34_linear_13_7343)"/>
</mask>
<g mask="url(#mask17_13_7343)">
<path d="M35.5094 110.854C38.397 110.854 40.7378 108.621 40.7378 105.866C40.7378 103.111 38.397 100.877 35.5094 100.877C32.6218 100.877 30.281 103.111 30.281 105.866C30.281 108.621 32.6218 110.854 35.5094 110.854Z" fill="url(#paint35_linear_13_7343)"/>
</g>
<mask id="mask18_13_7343" style="mask-type:alpha" maskUnits="userSpaceOnUse" x="60" y="100" width="12" height="11">
<path d="M65.7904 110.854C68.678 110.854 71.0188 108.621 71.0188 105.866C71.0188 103.111 68.678 100.877 65.7904 100.877C62.9028 100.877 60.562 103.111 60.562 105.866C60.562 108.621 62.9028 110.854 65.7904 110.854Z" fill="url(#paint36_linear_13_7343)"/>
</mask>
<g mask="url(#mask18_13_7343)">
<path d="M65.7904 110.854C68.678 110.854 71.0188 108.621 71.0188 105.866C71.0188 103.111 68.678 100.877 65.7904 100.877C62.9028 100.877 60.562 103.111 60.562 105.866C60.562 108.621 62.9028 110.854 65.7904 110.854Z" fill="url(#paint37_linear_13_7343)"/>
</g>
<mask id="mask19_13_7343" style="mask-type:alpha" maskUnits="userSpaceOnUse" x="90" y="100" width="12" height="11">
<path d="M96.0717 110.854C98.9592 110.854 101.3 108.621 101.3 105.866C101.3 103.111 98.9592 100.877 96.0717 100.877C93.1841 100.877 90.8433 103.111 90.8433 105.866C90.8433 108.621 93.1841 110.854 96.0717 110.854Z" fill="url(#paint38_linear_13_7343)"/>
</mask>
<g mask="url(#mask19_13_7343)">
<path d="M96.0717 110.854C98.9592 110.854 101.3 108.621 101.3 105.866C101.3 103.111 98.9592 100.877 96.0717 100.877C93.1841 100.877 90.8433 103.111 90.8433 105.866C90.8433 108.621 93.1841 110.854 96.0717 110.854Z" fill="url(#paint39_linear_13_7343)"/>
</g>
</g>
<defs>
<linearGradient id="paint0_linear_13_7343" x1="54.996" y1="126.295" x2="-11.1481" y2="-49.6779" gradientUnits="userSpaceOnUse">
<stop/>
<stop offset="1" stop-color="white"/>
</linearGradient>
<linearGradient id="paint1_linear_13_7343" x1="54.996" y1="126.295" x2="-11.1481" y2="-49.6779" gradientUnits="userSpaceOnUse">
<stop stop-color="#97C3F9"/>
<stop offset="1" stop-color="#93C1F9"/>
</linearGradient>
<linearGradient id="paint2_linear_13_7343" x1="81.2005" y1="116.446" x2="15.0564" y2="-59.5273" gradientUnits="userSpaceOnUse">
<stop/>
<stop offset="1" stop-color="white"/>
</linearGradient>
<linearGradient id="paint3_linear_13_7343" x1="81.2005" y1="116.446" x2="15.0564" y2="-59.5273" gradientUnits="userSpaceOnUse">
<stop stop-color="#97C3F9"/>
<stop offset="1" stop-color="#93C1F9"/>
</linearGradient>
<linearGradient id="paint4_linear_13_7343" x1="107.405" y1="106.597" x2="41.2608" y2="-69.3766" gradientUnits="userSpaceOnUse">
<stop/>
<stop offset="1" stop-color="white"/>
</linearGradient>
<linearGradient id="paint5_linear_13_7343" x1="107.405" y1="106.597" x2="41.2608" y2="-69.3766" gradientUnits="userSpaceOnUse">
<stop stop-color="#97C3F9"/>
<stop offset="1" stop-color="#93C1F9"/>
</linearGradient>
<linearGradient id="paint6_linear_13_7343" x1="133.609" y1="96.7467" x2="67.4652" y2="-79.2266" gradientUnits="userSpaceOnUse">
<stop/>
<stop offset="1" stop-color="white"/>
</linearGradient>
<linearGradient id="paint7_linear_13_7343" x1="133.609" y1="96.7467" x2="67.4652" y2="-79.2266" gradientUnits="userSpaceOnUse">
<stop stop-color="#97C3F9"/>
<stop offset="1" stop-color="#93C1F9"/>
</linearGradient>
<linearGradient id="paint8_linear_13_7343" x1="46.0538" y1="129.656" x2="-20.0891" y2="-46.3158" gradientUnits="userSpaceOnUse">
<stop/>
<stop offset="1" stop-color="white"/>
</linearGradient>
<linearGradient id="paint9_linear_13_7343" x1="46.0538" y1="129.656" x2="-20.0891" y2="-46.3158" gradientUnits="userSpaceOnUse">
<stop stop-color="#97C3F9"/>
<stop offset="1" stop-color="#93C1F9"/>
</linearGradient>
<linearGradient id="paint10_linear_13_7343" x1="72.258" y1="119.806" x2="6.11517" y2="-56.1657" gradientUnits="userSpaceOnUse">
<stop/>
<stop offset="1" stop-color="white"/>
</linearGradient>
<linearGradient id="paint11_linear_13_7343" x1="72.258" y1="119.806" x2="6.11517" y2="-56.1657" gradientUnits="userSpaceOnUse">
<stop stop-color="#97C3F9"/>
<stop offset="1" stop-color="#93C1F9"/>
</linearGradient>
<linearGradient id="paint12_linear_13_7343" x1="98.4623" y1="109.957" x2="32.3194" y2="-66.0152" gradientUnits="userSpaceOnUse">
<stop/>
<stop offset="1" stop-color="white"/>
</linearGradient>
<linearGradient id="paint13_linear_13_7343" x1="98.4623" y1="109.957" x2="32.3194" y2="-66.0152" gradientUnits="userSpaceOnUse">
<stop stop-color="#97C3F9"/>
<stop offset="1" stop-color="#93C1F9"/>
</linearGradient>
<linearGradient id="paint14_linear_13_7343" x1="124.667" y1="100.107" x2="58.5239" y2="-75.8647" gradientUnits="userSpaceOnUse">
<stop/>
<stop offset="1" stop-color="white"/>
</linearGradient>
<linearGradient id="paint15_linear_13_7343" x1="124.667" y1="100.107" x2="58.5239" y2="-75.8647" gradientUnits="userSpaceOnUse">
<stop stop-color="#97C3F9"/>
<stop offset="1" stop-color="#93C1F9"/>
</linearGradient>
<linearGradient id="paint16_linear_13_7343" x1="37.1113" y1="133.018" x2="-29.0327" y2="-42.9553" gradientUnits="userSpaceOnUse">
<stop/>
<stop offset="1" stop-color="white"/>
</linearGradient>
<linearGradient id="paint17_linear_13_7343" x1="37.1113" y1="133.018" x2="-29.0327" y2="-42.9553" gradientUnits="userSpaceOnUse">
<stop stop-color="#97C3F9"/>
<stop offset="1" stop-color="#93C1F9"/>
</linearGradient>
<linearGradient id="paint18_linear_13_7343" x1="63.3157" y1="123.168" x2="-2.82837" y2="-52.805" gradientUnits="userSpaceOnUse">
<stop/>
<stop offset="1" stop-color="white"/>
</linearGradient>
<linearGradient id="paint19_linear_13_7343" x1="63.3157" y1="123.168" x2="-2.82837" y2="-52.805" gradientUnits="userSpaceOnUse">
<stop stop-color="#97C3F9"/>
<stop offset="1" stop-color="#93C1F9"/>
</linearGradient>
<linearGradient id="paint20_linear_13_7343" x1="89.5199" y1="113.319" x2="23.376" y2="-62.6544" gradientUnits="userSpaceOnUse">
<stop/>
<stop offset="1" stop-color="white"/>
</linearGradient>
<linearGradient id="paint21_linear_13_7343" x1="89.5199" y1="113.319" x2="23.376" y2="-62.6544" gradientUnits="userSpaceOnUse">
<stop stop-color="#97C3F9"/>
<stop offset="1" stop-color="#93C1F9"/>
</linearGradient>
<linearGradient id="paint22_linear_13_7343" x1="115.724" y1="103.469" x2="49.5804" y2="-72.5042" gradientUnits="userSpaceOnUse">
<stop/>
<stop offset="1" stop-color="white"/>
</linearGradient>
<linearGradient id="paint23_linear_13_7343" x1="115.724" y1="103.469" x2="49.5804" y2="-72.5042" gradientUnits="userSpaceOnUse">
<stop stop-color="#97C3F9"/>
<stop offset="1" stop-color="#93C1F9"/>
</linearGradient>
<linearGradient id="paint24_linear_13_7343" x1="28.169" y1="136.379" x2="-37.9751" y2="-39.5942" gradientUnits="userSpaceOnUse">
<stop/>
<stop offset="1" stop-color="white"/>
</linearGradient>
<linearGradient id="paint25_linear_13_7343" x1="28.169" y1="136.379" x2="-37.9751" y2="-39.5942" gradientUnits="userSpaceOnUse">
<stop stop-color="#97C3F9"/>
<stop offset="1" stop-color="#93C1F9"/>
</linearGradient>
<linearGradient id="paint26_linear_13_7343" x1="54.3733" y1="126.53" x2="-11.7708" y2="-49.4438" gradientUnits="userSpaceOnUse">
<stop/>
<stop offset="1" stop-color="white"/>
</linearGradient>
<linearGradient id="paint27_linear_13_7343" x1="54.3733" y1="126.53" x2="-11.7708" y2="-49.4438" gradientUnits="userSpaceOnUse">
<stop stop-color="#97C3F9"/>
<stop offset="1" stop-color="#93C1F9"/>
</linearGradient>
<linearGradient id="paint28_linear_13_7343" x1="80.5775" y1="116.68" x2="14.4336" y2="-59.2933" gradientUnits="userSpaceOnUse">
<stop/>
<stop offset="1" stop-color="white"/>
</linearGradient>
<linearGradient id="paint29_linear_13_7343" x1="80.5775" y1="116.68" x2="14.4336" y2="-59.2933" gradientUnits="userSpaceOnUse">
<stop stop-color="#97C3F9"/>
<stop offset="1" stop-color="#93C1F9"/>
</linearGradient>
<linearGradient id="paint30_linear_13_7343" x1="106.782" y1="106.83" x2="40.638" y2="-69.143" gradientUnits="userSpaceOnUse">
<stop/>
<stop offset="1" stop-color="white"/>
</linearGradient>
<linearGradient id="paint31_linear_13_7343" x1="106.782" y1="106.83" x2="40.638" y2="-69.143" gradientUnits="userSpaceOnUse">
<stop stop-color="#97C3F9"/>
<stop offset="1" stop-color="#93C1F9"/>
</linearGradient>
<linearGradient id="paint32_linear_13_7343" x1="19.2266" y1="139.74" x2="-46.9175" y2="-36.233" gradientUnits="userSpaceOnUse">
<stop/>
<stop offset="1" stop-color="white"/>
</linearGradient>
<linearGradient id="paint33_linear_13_7343" x1="19.2266" y1="139.74" x2="-46.9175" y2="-36.233" gradientUnits="userSpaceOnUse">
<stop stop-color="#97C3F9"/>
<stop offset="1" stop-color="#93C1F9"/>
</linearGradient>
<linearGradient id="paint34_linear_13_7343" x1="45.4309" y1="129.891" x2="-20.7131" y2="-46.0826" gradientUnits="userSpaceOnUse">
<stop/>
<stop offset="1" stop-color="white"/>
</linearGradient>
<linearGradient id="paint35_linear_13_7343" x1="45.4309" y1="129.891" x2="-20.7131" y2="-46.0826" gradientUnits="userSpaceOnUse">
<stop stop-color="#97C3F9"/>
<stop offset="1" stop-color="#93C1F9"/>
</linearGradient>
<linearGradient id="paint36_linear_13_7343" x1="71.6352" y1="120.041" x2="5.49121" y2="-55.932" gradientUnits="userSpaceOnUse">
<stop/>
<stop offset="1" stop-color="white"/>
</linearGradient>
<linearGradient id="paint37_linear_13_7343" x1="71.6352" y1="120.041" x2="5.49121" y2="-55.932" gradientUnits="userSpaceOnUse">
<stop stop-color="#97C3F9"/>
<stop offset="1" stop-color="#93C1F9"/>
</linearGradient>
<linearGradient id="paint38_linear_13_7343" x1="97.8397" y1="110.191" x2="31.6957" y2="-65.7817" gradientUnits="userSpaceOnUse">
<stop/>
<stop offset="1" stop-color="white"/>
</linearGradient>
<linearGradient id="paint39_linear_13_7343" x1="97.8397" y1="110.191" x2="31.6957" y2="-65.7817" gradientUnits="userSpaceOnUse">
<stop stop-color="#97C3F9"/>
<stop offset="1" stop-color="#93C1F9"/>
</linearGradient>
</defs>
</svg>
