<svg width="69" height="95" viewBox="0 0 69 95" fill="none" xmlns="http://www.w3.org/2000/svg">
<g clip-path="url(#clip0_13_6618)">
<path d="M68.0378 90.4482C68.0378 92.9272 66.0314 94.942 63.5523 94.942L5.54741 95.0083C3.57411 95.0083 1.8993 93.7398 1.29405 91.9737C1.13652 91.5177 1.05361 91.0368 1.05361 90.5311L0.962402 6.88167C0.962402 4.40261 2.96886 2.38786 5.44791 2.38786L58.7103 2.32982L63.4528 2.32153C65.9319 2.32153 67.9466 4.32799 67.9466 6.80704L68.0378 90.4482Z" fill="url(#paint0_linear_13_6618)"/>
<path d="M62.0268 89.9673L7.06473 90.0253C5.72985 90.0253 4.652 88.9474 4.652 87.6126L4.56909 9.76697C4.56909 8.43209 5.64694 7.35424 6.98182 7.35424L61.9356 7.2962C63.2704 7.2962 64.3483 8.37405 64.3483 9.70893L64.4312 87.5545C64.4395 88.8811 63.3616 89.9673 62.0268 89.9673Z" fill="white"/>
<path d="M54.3076 13.7136L14.2198 13.7633C12.8933 13.7633 11.8071 12.6855 11.8071 11.3589L11.7988 4.67623C11.7988 3.34964 12.8767 2.2635 14.2033 2.2635L54.2993 2.22205C55.6259 2.22205 56.712 3.2999 56.712 4.62648L56.7203 11.3091C56.712 12.6357 55.6341 13.7136 54.3076 13.7136ZM14.2033 3.49059C13.5566 3.49059 13.0259 4.02123 13.0259 4.66793L13.0342 11.3506C13.0342 11.9973 13.5648 12.5279 14.2116 12.5279L54.3076 12.4865C54.9543 12.4865 55.4849 11.9559 55.4849 11.3091L55.4766 4.62648C55.4766 3.97977 54.946 3.44914 54.2993 3.44914L14.2033 3.49059Z" fill="url(#paint1_linear_13_6618)"/>
<path d="M53.1717 5.11564L15.7372 5.1571C15.3226 5.1571 14.991 4.82545 14.991 4.41089V0.787659C14.991 0.373102 15.3226 0.0414557 15.7372 0.0414557L53.1634 0C53.578 0 53.9096 0.331646 53.9096 0.746203V4.36944C53.9179 4.78399 53.5863 5.11564 53.1717 5.11564Z" fill="url(#paint2_linear_13_6618)"/>
<path d="M15.7703 5.15708L53.1385 5.11562C53.5697 5.11562 53.9179 4.7674 53.9179 4.33626V2.56195L14.9827 2.60341V4.37771C14.9827 4.80885 15.3392 5.15708 15.7703 5.15708Z" fill="#58D6F4"/>
<path d="M28.9035 81.2118L25.6699 61.6447L23.0499 70.1597L15.5547 70.168C15.0987 70.168 14.7339 69.8032 14.7339 69.3472C14.7339 68.8912 15.0987 68.5264 15.5547 68.5264L21.8477 68.5181L26.1674 54.4977L29.4009 74.1146L33.5963 60.6415L35.8266 67.0257L40.851 54.846L45.7345 74.1643L47.5751 68.0206L52.9644 68.0123C53.4204 68.0123 53.7852 68.3771 53.7852 68.8331C53.7852 69.2892 53.4204 69.654 52.9644 69.654L48.7939 69.6623L45.6018 80.3164L40.4779 60.0528L35.6939 71.6355L33.6792 65.8732L28.9035 81.2118Z" fill="#58D6F4"/>
<path d="M23.3484 43.4871L12.8104 43.4954C11.1107 43.4954 9.71775 42.1107 9.71775 40.411L9.70117 25.6777C9.70117 23.978 11.0858 22.5851 12.7855 22.5851L23.3235 22.5768C25.0232 22.5768 26.4161 23.9614 26.4161 25.6611L26.4327 40.3945C26.4327 42.0942 25.0481 43.4788 23.3484 43.4871ZM12.7772 23.4805C11.5667 23.4805 10.5883 24.4672 10.5883 25.6777L10.6049 40.411C10.6049 41.6216 11.5916 42.5999 12.8021 42.5999L23.3401 42.5916C24.5506 42.5916 25.529 41.605 25.529 40.3945L25.5124 25.6611C25.5124 24.4506 24.5258 23.4722 23.3152 23.4722L12.7772 23.4805Z" fill="url(#paint3_linear_13_6618)"/>
<path d="M18.0669 40.6598C23.0499 40.6515 24.6003 37.7745 24.6003 37.7745C24.3765 37.4926 24.0946 37.2439 23.7132 36.9951C22.4032 36.1411 21.3502 35.7763 20.9108 35.4115C20.4631 35.055 20.2143 34.5327 20.2143 34.5327L19.9407 34.6985C19.9407 34.6985 19.7749 34.1264 19.8661 33.2558C19.8661 33.2558 20.2558 33.1563 20.546 31.838C21.0103 31.9292 21.5575 30.7519 21.3005 30.3207C21.1346 30.0388 20.9357 30.0637 20.7947 30.1301C20.9357 29.5414 21.5741 26.283 18.0586 26.283C14.5432 26.283 15.1816 29.5414 15.3308 30.1301C15.1899 30.0637 14.9909 30.0388 14.8251 30.3207C14.5681 30.7519 15.1236 31.9292 15.5879 31.838C15.8781 33.1563 16.276 33.2475 16.276 33.2475C16.3755 34.1098 16.2014 34.6902 16.2014 34.6902L15.9278 34.5244C15.9278 34.5244 15.6791 35.0384 15.2313 35.4032C14.7836 35.768 13.7389 36.1411 12.4289 36.9951C12.0475 37.2439 11.7574 37.4926 11.5418 37.7745C11.5335 37.7911 13.0922 40.6681 18.0669 40.6598Z" fill="url(#paint4_linear_13_6618)"/>
<path d="M50.8833 27.2779L30.5949 27.3028C30.2135 27.3028 29.9067 26.996 29.9067 26.6146V26.4986C29.9067 26.1172 30.2135 25.8104 30.5949 25.8104L50.8833 25.7855C51.2647 25.7855 51.5715 26.0923 51.5715 26.4737V26.5898C51.5715 26.9712 51.2564 27.2779 50.8833 27.2779Z" fill="url(#paint5_linear_13_6618)"/>
<path d="M43.4213 31.1415L30.5949 31.1581C30.2135 31.1581 29.9067 30.8513 29.9067 30.4699V30.3539C29.9067 29.9725 30.2135 29.6657 30.5949 29.6657L43.4213 29.6491C43.8027 29.6491 44.1095 29.9559 44.1095 30.3373V30.4534C44.1095 30.8348 43.8027 31.1415 43.4213 31.1415Z" fill="url(#paint6_linear_13_6618)"/>
<path opacity="0.6" d="M57.8811 35.7348L30.6032 35.768C30.2218 35.768 29.915 35.4612 29.915 35.0798V34.9638C29.915 34.5824 30.2218 34.2756 30.6032 34.2756L57.8811 34.2424C58.2625 34.2424 58.5693 34.5492 58.5693 34.9306V35.0467C58.561 35.4281 58.2542 35.7348 57.8811 35.7348Z" fill="url(#paint7_linear_13_6618)"/>
<path opacity="0.6" d="M57.2925 48.6442L11.7907 48.6939C11.401 48.6939 11.0776 48.3789 11.0776 47.9809V47.9146C11.0776 47.5249 11.3927 47.2015 11.7907 47.2015L57.2925 47.1518C57.6822 47.1518 58.0056 47.4669 58.0056 47.8648V47.9312C58.0056 48.3291 57.6822 48.6442 57.2925 48.6442Z" fill="url(#paint8_linear_13_6618)"/>
<path opacity="0.6" d="M57.8811 40.2452L30.6032 40.2784C30.2218 40.2784 29.915 39.9716 29.915 39.5902V39.4741C29.915 39.0927 30.2218 38.786 30.6032 38.786L57.8811 38.7528C58.2625 38.7528 58.5693 39.0596 58.5693 39.441V39.5571C58.5693 39.9384 58.2625 40.2452 57.8811 40.2452Z" fill="url(#paint9_linear_13_6618)"/>
</g>
<defs>
<linearGradient id="paint0_linear_13_6618" x1="-8.32628" y1="34.748" x2="77.3265" y2="62.5782" gradientUnits="userSpaceOnUse">
<stop stop-color="#6CBCFC"/>
<stop offset="0.1713" stop-color="#5EABFC"/>
<stop offset="0.4084" stop-color="#509AFC"/>
<stop offset="0.6698" stop-color="#4890FC"/>
<stop offset="1" stop-color="#458DFC"/>
</linearGradient>
<linearGradient id="paint1_linear_13_6618" x1="-4.26269" y1="-21.375" x2="56.7137" y2="7.98973" gradientUnits="userSpaceOnUse">
<stop stop-color="#CFE9FF"/>
<stop offset="1" stop-color="#A1D6FB"/>
</linearGradient>
<linearGradient id="paint2_linear_13_6618" x1="14.9815" y1="2.57952" x2="53.9173" y2="2.57952" gradientUnits="userSpaceOnUse">
<stop stop-color="#B0F4FF"/>
<stop offset="1" stop-color="#69DCFC"/>
</linearGradient>
<linearGradient id="paint3_linear_13_6618" x1="15.0973" y1="29.2075" x2="24.8779" y2="41.8334" gradientUnits="userSpaceOnUse">
<stop stop-color="#6CBCFC"/>
<stop offset="1" stop-color="#458DFC"/>
</linearGradient>
<linearGradient id="paint4_linear_13_6618" x1="14.0364" y1="30.0293" x2="23.8171" y2="42.6553" gradientUnits="userSpaceOnUse">
<stop stop-color="#B0F4FF"/>
<stop offset="0.0994384" stop-color="#A1EFFE"/>
<stop offset="0.2994" stop-color="#88E7FD"/>
<stop offset="0.5095" stop-color="#77E1FD"/>
<stop offset="0.7344" stop-color="#6CDDFC"/>
<stop offset="1" stop-color="#69DCFC"/>
</linearGradient>
<linearGradient id="paint5_linear_13_6618" x1="29.9079" y1="26.551" x2="51.5672" y2="26.564" gradientUnits="userSpaceOnUse">
<stop stop-color="#6CBCFC"/>
<stop offset="1" stop-color="#458DFC"/>
</linearGradient>
<linearGradient id="paint6_linear_13_6618" x1="29.9119" y1="30.4036" x2="44.1086" y2="30.4036" gradientUnits="userSpaceOnUse">
<stop stop-color="#6CBCFC"/>
<stop offset="1" stop-color="#458DFC"/>
</linearGradient>
<linearGradient id="paint7_linear_13_6618" x1="29.9166" y1="35.0098" x2="58.5646" y2="35.0098" gradientUnits="userSpaceOnUse">
<stop stop-color="#6CBCFC"/>
<stop offset="1" stop-color="#458DFC"/>
</linearGradient>
<linearGradient id="paint8_linear_13_6618" x1="11.0772" y1="47.9272" x2="58.0032" y2="47.9272" gradientUnits="userSpaceOnUse">
<stop stop-color="#6CBCFC"/>
<stop offset="1" stop-color="#458DFC"/>
</linearGradient>
<linearGradient id="paint9_linear_13_6618" x1="29.9212" y1="39.5191" x2="58.5692" y2="39.5191" gradientUnits="userSpaceOnUse">
<stop stop-color="#6CBCFC"/>
<stop offset="1" stop-color="#458DFC"/>
</linearGradient>
<clipPath id="clip0_13_6618">
<rect width="67.0754" height="95" fill="white" transform="translate(0.962402)"/>
</clipPath>
</defs>
</svg>
