<svg width="81" height="73" viewBox="0 0 81 73" fill="none" xmlns="http://www.w3.org/2000/svg">
<g clip-path="url(#clip0_13_6661)">
<path d="M66.9754 14.9333H13.7583V72.05H66.9754V14.9333Z" fill="url(#paint0_linear_13_6661)"/>
<path d="M13.5381 14.9333C13.6023 14.9333 13.6665 14.9609 13.7583 14.9884C13.7583 33.9906 13.7583 52.9927 13.7583 72.0224C9.63856 72.3436 6.1611 71.3068 3.39931 68.6459C1.44496 66.7558 0.499898 64.5353 0.499898 62.0213C0.499898 53.1212 0.499898 44.2303 0.499898 35.3302C0.499898 31.9353 0.490723 28.5404 0.490723 25.1455C0.490723 21.0441 2.70199 18.0621 6.76667 16.0436C8.85865 15.0159 11.18 14.8599 13.5381 14.9333Z" fill="url(#paint1_linear_13_6661)"/>
<path d="M57.6808 14.9242C60.0573 14.9242 60.2958 14.9242 62.6631 14.9242C62.6631 33.9906 62.6631 52.9927 62.6631 72.0316C46.5053 72.0316 34.2837 72.0316 18.0708 72.0316C18.0708 53.0019 18.0708 33.9997 18.0708 14.9425C20.438 14.9425 20.9519 14.9425 23.365 14.9425C23.365 14.704 23.365 14.5204 23.365 14.3461C23.365 12.3 23.3742 10.2447 23.3558 8.19862C23.3375 6.76726 23.7228 5.51941 24.8422 4.54683C25.6313 3.86785 26.5397 3.51918 27.5673 3.51918C30.7512 3.51001 33.9258 3.51001 37.1097 3.51001C42.4589 3.51001 47.8173 3.51919 53.1666 3.51001C54.5704 3.51001 55.7357 3.96878 56.6532 5.03312C57.3872 5.88643 57.6625 6.88654 57.6625 8.00594C57.6533 10.1621 57.6625 12.3184 57.6625 14.4746C57.6533 14.5938 57.6625 14.7315 57.6808 14.9242ZM29.1088 14.9242C29.329 14.9242 29.4941 14.9242 29.6593 14.9242C32.1917 14.9242 34.7333 14.9242 37.2657 14.9242C42.0002 14.9242 46.7438 14.9242 51.4783 14.9333C51.8545 14.9333 51.9371 14.8141 51.9371 14.4562C51.9187 12.8505 51.9371 11.2448 51.9371 9.63915C51.9371 9.5107 51.9187 9.38224 51.9004 9.24461C44.2848 9.24461 36.7151 9.24461 29.1088 9.24461C29.1088 11.1347 29.1088 12.9882 29.1088 14.9242Z" fill="white"/>
<mask id="mask0_13_6661" style="mask-type:alpha" maskUnits="userSpaceOnUse" x="18" y="3" width="45" height="70">
<path d="M57.6808 14.9242C60.0573 14.9242 60.2958 14.9242 62.6631 14.9242C62.6631 33.9906 62.6631 52.9927 62.6631 72.0316C46.5053 72.0316 34.2837 72.0316 18.0708 72.0316C18.0708 53.0019 18.0708 33.9997 18.0708 14.9425C20.438 14.9425 20.9519 14.9425 23.365 14.9425C23.365 14.704 23.365 14.5204 23.365 14.3461C23.365 12.3 23.3742 10.2447 23.3558 8.19862C23.3375 6.76726 23.7228 5.51941 24.8422 4.54683C25.6313 3.86785 26.5397 3.51918 27.5673 3.51918C30.7512 3.51001 33.9258 3.51001 37.1097 3.51001C42.4589 3.51001 47.8173 3.51919 53.1666 3.51001C54.5704 3.51001 55.7357 3.96878 56.6532 5.03312C57.3872 5.88643 57.6625 6.88654 57.6625 8.00594C57.6533 10.1621 57.6625 12.3184 57.6625 14.4746C57.6533 14.5938 57.6625 14.7315 57.6808 14.9242ZM29.1088 14.9242C29.329 14.9242 29.4941 14.9242 29.6593 14.9242C32.1917 14.9242 34.7333 14.9242 37.2657 14.9242C42.0002 14.9242 46.7438 14.9242 51.4783 14.9333C51.8545 14.9333 51.9371 14.8141 51.9371 14.4562C51.9187 12.8505 51.9371 11.2448 51.9371 9.63915C51.9371 9.5107 51.9187 9.38224 51.9004 9.24461C44.2848 9.24461 36.7151 9.24461 29.1088 9.24461C29.1088 11.1347 29.1088 12.9882 29.1088 14.9242Z" fill="#F7F9FC"/>
</mask>
<g mask="url(#mask0_13_6661)">
<path d="M58.596 0.922546H21.5V14.9425H58.596V0.922546Z" fill="url(#paint2_linear_13_6661)"/>
</g>
<path d="M80.5 24.9987C80.5 21.2185 78.4355 18.4016 74.7654 16.3555C72.5082 15.0985 69.9483 14.86 67.3241 14.915C66.9204 14.9242 66.9755 15.1352 66.9755 15.3554C66.9755 21.9617 66.9755 28.5588 66.9755 35.165C66.9755 46.7719 66.9755 58.3695 66.9663 69.9764C66.9663 70.6462 66.9663 71.316 66.9663 72.0408C68.6179 72.0959 70.1869 72.1051 71.7283 71.738C76.9399 70.5085 80.4908 66.6274 80.4908 62.0489C80.5092 49.708 80.5 37.3488 80.5 24.9987Z" fill="url(#paint3_linear_13_6661)"/>
<path d="M44.716 47.7077C44.716 48.8913 44.716 50.0107 44.716 51.1393C44.716 52.4147 44.716 53.6901 44.716 54.9563C44.716 55.7178 44.3306 56.1215 43.5782 56.1215C41.5046 56.1307 39.431 56.1307 37.3573 56.1215C36.6692 56.1215 36.2838 55.6903 36.2838 54.9654C36.2838 52.6899 36.2838 50.4145 36.2838 48.139C36.2838 48.0105 36.2838 47.8729 36.2838 47.7077C36.1095 47.7077 35.981 47.7077 35.8434 47.7077C33.6046 47.7077 31.3567 47.7077 29.1179 47.7077C28.2279 47.7077 27.8608 47.3499 27.8608 46.4599C27.8608 44.4872 27.8608 42.5145 27.8608 40.5418C27.8608 39.6426 28.2187 39.2847 29.1087 39.2847C31.3383 39.2847 33.5679 39.2847 35.7975 39.2847C35.9443 39.2847 36.082 39.2847 36.2746 39.2847C36.2746 39.1379 36.2746 39.0187 36.2746 38.8994C36.2746 36.6239 36.2746 34.3484 36.2746 32.0729C36.2746 31.2288 36.6508 30.8618 37.495 30.8618C39.4677 30.8618 41.4404 30.8618 43.4131 30.8618C44.3398 30.8618 44.6976 31.2104 44.6976 32.1555C44.7068 34.4126 44.6976 36.6606 44.6976 38.9177C44.6976 39.0278 44.6976 39.1379 44.6976 39.2939C44.8444 39.2939 44.9729 39.2939 45.0922 39.2939C47.3677 39.2939 49.6432 39.2939 51.9186 39.3031C52.7536 39.3031 53.1114 39.6701 53.1114 40.5051C53.1114 42.4869 53.1114 44.4688 53.1114 46.4507C53.1114 47.3591 52.7628 47.7077 51.8728 47.7077C49.6065 47.7077 47.3401 47.7077 45.083 47.7169C44.9912 47.7077 44.8811 47.7077 44.716 47.7077Z" fill="url(#paint4_linear_13_6661)"/>
</g>
<defs>
<linearGradient id="paint0_linear_13_6661" x1="13.7596" y1="43.4882" x2="66.9729" y2="43.4882" gradientUnits="userSpaceOnUse">
<stop stop-color="#B0F4FF"/>
<stop offset="1" stop-color="#69DCFC"/>
</linearGradient>
<linearGradient id="paint1_linear_13_6661" x1="0.499898" y1="43.4972" x2="13.7596" y2="43.4972" gradientUnits="userSpaceOnUse">
<stop stop-color="#6CBCFC"/>
<stop offset="1" stop-color="#458DFC"/>
</linearGradient>
<linearGradient id="paint2_linear_13_6661" x1="21.4962" y1="7.93104" x2="58.5944" y2="7.93104" gradientUnits="userSpaceOnUse">
<stop stop-color="#6CBCFC"/>
<stop offset="1" stop-color="#458DFC"/>
</linearGradient>
<linearGradient id="paint3_linear_13_6661" x1="66.9686" y1="43.4916" x2="80.5007" y2="43.4916" gradientUnits="userSpaceOnUse">
<stop stop-color="#6CBCFC"/>
<stop offset="1" stop-color="#458DFC"/>
</linearGradient>
<linearGradient id="paint4_linear_13_6661" x1="27.8665" y1="43.5008" x2="53.1298" y2="43.5008" gradientUnits="userSpaceOnUse">
<stop stop-color="#6CBCFC"/>
<stop offset="1" stop-color="#458DFC"/>
</linearGradient>
<clipPath id="clip0_13_6661">
<rect width="80" height="71.1549" fill="white" transform="translate(0.5 0.922546)"/>
</clipPath>
</defs>
</svg>
