<svg width="63" height="85" viewBox="0 0 63 85" fill="none" xmlns="http://www.w3.org/2000/svg">
<path d="M62.4285 26.4806L62.2369 66.2814L62.2049 73.9796C62.173 80.0967 56.3594 85.0319 49.2042 84.9999L13.4601 84.8402C6.32089 84.7923 0.539234 79.8092 0.571177 73.6762L0.794777 26.1771C0.810748 21.226 4.64389 17.0415 9.88252 15.652L9.89849 13.0965V11.7869L53.4526 11.9945L53.4366 15.8596C58.6593 17.313 62.4445 21.5135 62.4285 26.4806Z" fill="url(#paint0_linear_13_6953)"/>
<path d="M56.6947 1.77283V2.1242L56.6628 6.27678L56.6308 10.3495V10.8446C56.6308 11.6112 55.992 12.2341 55.2253 12.2341H54.8899L52.7817 12.2182L50.4658 12.2022L48.3576 12.1862L46.0418 12.1702L43.9016 12.1383L41.5857 12.1223L39.4775 12.1064L37.1457 12.0904L35.0215 12.0744L32.7056 12.0584L30.5974 12.0265L28.2815 12.0105L26.1733 11.9945L23.8415 11.9786L21.7173 11.9626L19.4174 11.9466L17.3091 11.9307L14.9933 11.9147L12.8691 11.8987L10.5532 11.8828L8.42902 11.8668H8.09362C7.32699 11.8668 6.7041 11.2279 6.7041 10.4613V10.4453V10.0939L6.76799 1.88463V1.38952C6.76799 0.622886 7.40684 0 8.18945 0H8.52485L12.9649 0.0319429L17.405 0.0638858L19.5292 0.0798572L21.845 0.0958286L23.9533 0.1118L28.3773 0.159714L30.6932 0.175686L32.8014 0.191657L35.1173 0.207629L37.2255 0.2236L39.5414 0.239572L41.6496 0.255543L43.9655 0.271514L46.0737 0.287486L48.4215 0.319429L50.5297 0.3354L52.8456 0.351372L54.9698 0.367343H55.3052C56.0878 0.383315 56.6947 1.0062 56.6947 1.77283Z" fill="url(#paint1_linear_13_6953)"/>
<path d="M56.6947 2.14019L56.6628 6.27679L56.6308 10.3495L54.7302 10.3335L52.2067 10.3176L49.8909 10.3016H47.3514L45.0356 10.2856L42.5121 10.2697L40.1962 10.2537H37.6567L35.3409 10.2377L32.8014 10.2217L30.5015 10.2058H27.9621L25.6462 10.1898L23.1068 10.1738L20.7909 10.1579H18.2674L15.9516 10.1419L13.4121 10.1259L11.0962 10.1099H8.57276L6.7041 10.094L6.76799 1.88464L11.208 1.90061L16.0474 1.93256L18.3633 1.94853L20.9027 1.9645H23.2186L28.0579 1.99644L30.5974 2.01242H32.9132L35.4527 2.02839L37.7526 2.04436L40.292 2.06033H42.6079L45.1474 2.0763L47.4472 2.09227L49.9867 2.10824H52.3026L54.842 2.12422L56.6947 2.14019Z" fill="url(#paint2_linear_13_6953)"/>
<path d="M62.3818 34.8841L0.748047 34.5927L0.618812 61.9198L62.2526 62.2112L62.3818 34.8841Z" fill="#F7F9FC"/>
<path d="M62.3926 34.884L0.758789 34.5927L0.735533 39.5119L62.3693 39.8032L62.3926 34.884Z" fill="#FBFCF7"/>
<path d="M24.784 45.5803L20.8071 45.5644L20.8231 41.5715L15.3449 41.5555L15.3289 45.5324L11.352 45.5165L11.3201 50.9787L15.297 50.9947L15.281 54.9875L20.7592 55.0035L20.7752 51.0266L24.752 51.0426L24.784 45.5803Z" fill="url(#paint3_linear_13_6953)"/>
<path d="M51.8077 46.906L32.0989 46.8102C31.5719 46.8102 31.1406 46.379 31.1406 45.8519V45.4047C31.1406 44.8776 31.5719 44.4464 32.0989 44.4464L51.8077 44.5422C52.3347 44.5422 52.766 44.9735 52.766 45.5005V45.9477C52.766 46.4748 52.3347 46.906 51.8077 46.906Z" fill="url(#paint4_linear_13_6953)"/>
<path opacity="0.5" d="M51.7916 52.7675L32.0828 52.6716C31.5557 52.6716 31.1245 52.2404 31.1245 51.7133V51.2661C31.1245 50.7391 31.5557 50.3079 32.0828 50.3079L51.7916 50.4037C52.3186 50.4037 52.7498 50.8349 52.7498 51.362V51.8092C52.7498 52.3362 52.3186 52.7675 51.7916 52.7675Z" fill="url(#paint5_linear_13_6953)"/>
<path opacity="0.08" d="M6.7041 1.7728V2.12417L6.73604 6.27674L6.76799 10.3335V10.8286C6.76799 11.5952 7.40684 12.2181 8.17347 12.2181H8.50887L10.6331 12.2021L12.9489 12.1862L15.0572 12.1702L17.373 12.1542L19.4813 12.1383L21.7971 12.1223L23.9053 12.1063L26.2212 12.0903L28.3454 12.0744L30.6613 12.0584L32.7695 12.0424L35.0854 12.0265L37.1936 12.0105L39.5094 11.9945L41.6336 11.9785L43.9495 11.9626L46.0577 11.9466L48.3736 11.9306L50.4818 11.9147L52.7977 11.8987L54.9219 11.8827H55.2573C56.0239 11.8827 56.6468 11.2439 56.6468 10.4772V10.4613V10.1099C31.939 11.18 8.09362 0.36731 8.09362 0.36731C7.32699 0.383281 6.7041 1.00617 6.7041 1.7728Z" fill="#1A6FB5"/>
<defs>
<linearGradient id="paint0_linear_13_6953" x1="0.571176" y1="11.3333" x2="57.7101" y2="90.1944" gradientUnits="userSpaceOnUse">
<stop stop-color="#6CBCFC"/>
<stop offset="1" stop-color="#458DFC"/>
</linearGradient>
<linearGradient id="paint1_linear_13_6953" x1="-629.359" y1="-39.931" x2="-27.033" y2="2.02206" gradientUnits="userSpaceOnUse">
<stop stop-color="#B0F4FF"/>
<stop offset="0.0525488" stop-color="#A9F2FF"/>
<stop offset="0.2879" stop-color="#8DE8FE"/>
<stop offset="0.5247" stop-color="#79E1FD"/>
<stop offset="0.7618" stop-color="#6DDDFC"/>
<stop offset="1" stop-color="#69DCFC"/>
</linearGradient>
<linearGradient id="paint2_linear_13_6953" x1="6.711" y1="6.11313" x2="56.6968" y2="6.11313" gradientUnits="userSpaceOnUse">
<stop stop-color="#B0F4FF"/>
<stop offset="0.0525488" stop-color="#A9F2FF"/>
<stop offset="0.2879" stop-color="#8DE8FE"/>
<stop offset="0.5247" stop-color="#79E1FD"/>
<stop offset="0.7618" stop-color="#6DDDFC"/>
<stop offset="1" stop-color="#69DCFC"/>
</linearGradient>
<linearGradient id="paint3_linear_13_6953" x1="22.5492" y1="43.0953" x2="13.1688" y2="53.9124" gradientUnits="userSpaceOnUse">
<stop stop-color="#6CBCFC"/>
<stop offset="1" stop-color="#458DFC"/>
</linearGradient>
<linearGradient id="paint4_linear_13_6953" x1="52.956" y1="45.671" x2="29.4579" y2="45.671" gradientUnits="userSpaceOnUse">
<stop stop-color="#6CBCFC"/>
<stop offset="1" stop-color="#458DFC"/>
</linearGradient>
<linearGradient id="paint5_linear_13_6953" x1="31.123" y1="51.5321" x2="52.7502" y2="51.5321" gradientUnits="userSpaceOnUse">
<stop stop-color="#6CBCFC"/>
<stop offset="1" stop-color="#458DFC"/>
</linearGradient>
</defs>
</svg>
