<svg width="71" height="95" viewBox="0 0 71 95" fill="none" xmlns="http://www.w3.org/2000/svg">
<g clip-path="url(#clip0_13_6637)">
<path d="M70.2113 4.31029V90.7055C70.2113 93.0896 68.2851 95.0158 65.901 95.0158H5.09911C2.71503 95 0.788818 93.0738 0.788818 90.7055V4.31029C0.788818 1.92621 2.71503 0 5.09911 0H65.9168C68.2851 0 70.2113 1.92621 70.2113 4.31029Z" fill="url(#paint0_linear_13_6637)"/>
<path d="M65.7888 7.94666V87.0533C65.7888 89.2363 64.0963 91 62.0015 91H8.57617C6.48134 90.9855 4.78882 89.2218 4.78882 87.0533V7.94666C4.78882 5.76371 6.48134 4 8.57617 4H62.0153C64.0963 4 65.7888 5.76371 65.7888 7.94666Z" fill="url(#paint1_linear_13_6637)"/>
<path d="M27.661 18.2516V22.183C27.661 22.4672 27.44 22.6882 27.1558 22.6882H22.3403C22.0561 22.6882 21.835 22.9092 21.835 23.1934V28.009C21.835 28.2932 21.614 28.5142 21.3298 28.5142H17.3984C17.1143 28.5142 16.8932 28.2932 16.8932 28.009V23.1934C16.8932 22.9092 16.6722 22.6882 16.388 22.6882H11.5882C11.304 22.6882 11.083 22.4672 11.083 22.183V18.2516C11.083 17.9674 11.304 17.7464 11.5882 17.7464H16.4038C16.688 17.7464 16.909 17.5253 16.909 17.2411V12.4256C16.909 12.1414 17.13 11.9204 17.4142 11.9204H21.3456C21.6298 11.9204 21.8508 12.1414 21.8508 12.4256V17.2411C21.8508 17.5253 22.0719 17.7464 22.3561 17.7464H27.1558C27.44 17.7464 27.661 17.9674 27.661 18.2516Z" fill="url(#paint2_linear_13_6637)"/>
<path opacity="0.5" d="M59.3645 39.6767H11.6355C11.3198 39.6767 11.0671 39.4241 11.0671 39.1084V37.2927C11.0671 36.9769 11.3198 36.7243 11.6355 36.7243H59.3645C59.6802 36.7243 59.9329 36.9769 59.9329 37.2927V39.1084C59.9171 39.4241 59.6802 39.6767 59.3645 39.6767Z" fill="url(#paint3_linear_13_6637)"/>
<path d="M59.3646 17.0517H35.6817C35.3659 17.0517 35.1133 16.7991 35.1133 16.4833V14.6834C35.1133 14.3676 35.3659 14.115 35.6817 14.115H59.3646C59.6803 14.115 59.933 14.3676 59.933 14.6834V16.4991C59.9172 16.7991 59.6803 17.0517 59.3646 17.0517Z" fill="url(#paint4_linear_13_6637)"/>
<path opacity="0.5" d="M52.3544 24.7249H35.6817C35.3659 24.7249 35.1133 24.4723 35.1133 24.1565V22.3408C35.1133 22.0251 35.3659 21.7725 35.6817 21.7725H52.3544C52.6702 21.7725 52.9228 22.0251 52.9228 22.3408V24.1565C52.907 24.4723 52.6702 24.7249 52.3544 24.7249Z" fill="url(#paint5_linear_13_6637)"/>
<path opacity="0.5" d="M59.3645 48.2973H11.6355C11.3198 48.2973 11.0671 48.0447 11.0671 47.7289V45.9132C11.0671 45.5975 11.3198 45.3448 11.6355 45.3448H59.3645C59.6802 45.3448 59.9329 45.5975 59.9329 45.9132V47.7289C59.9171 48.0447 59.6802 48.2973 59.3645 48.2973Z" fill="url(#paint6_linear_13_6637)"/>
<path opacity="0.5" d="M59.3645 56.9179H11.6355C11.3198 56.9179 11.0671 56.6653 11.0671 56.3495V54.5338C11.0671 54.218 11.3198 53.9654 11.6355 53.9654H59.3645C59.6802 53.9654 59.9329 54.218 59.9329 54.5338V56.3653C59.9171 56.6653 59.6802 56.9179 59.3645 56.9179Z" fill="url(#paint7_linear_13_6637)"/>
<path opacity="0.5" d="M59.3645 65.5542H11.6355C11.3198 65.5542 11.0671 65.3016 11.0671 64.9859V63.1702C11.0671 62.8544 11.3198 62.6018 11.6355 62.6018H59.3645C59.6802 62.6018 59.9329 62.8544 59.9329 63.1702V64.9859C59.9171 65.3016 59.6802 65.5542 59.3645 65.5542Z" fill="url(#paint8_linear_13_6637)"/>
<path opacity="0.5" d="M59.3645 74.1749H11.6355C11.3198 74.1749 11.0671 73.9222 11.0671 73.6065V71.7907C11.0671 71.475 11.3198 71.2224 11.6355 71.2224H59.3645C59.6802 71.2224 59.9329 71.475 59.9329 71.7907V73.6065C59.9171 73.9222 59.6802 74.1749 59.3645 74.1749Z" fill="url(#paint9_linear_13_6637)"/>
<path opacity="0.5" d="M59.3645 82.7954H11.6355C11.3198 82.7954 11.0671 82.5428 11.0671 82.227V80.4113C11.0671 80.0956 11.3198 79.8429 11.6355 79.8429H59.3645C59.6802 79.8429 59.9329 80.0956 59.9329 80.4113V82.227C59.9171 82.5428 59.6802 82.7954 59.3645 82.7954Z" fill="url(#paint10_linear_13_6637)"/>
<path opacity="0.1" d="M70.2113 4.31029V90.7055C70.2113 93.0896 68.2851 95.0158 65.901 95.0158H5.09911C2.71503 95 0.788818 93.0738 0.788818 90.7055V89.2056C37.8762 73.8906 55.149 15.1571 59.0487 0H65.901C68.2851 0 70.2113 1.92621 70.2113 4.31029Z" fill="#1A6FB5" fill-opacity="0.4"/>
</g>
<defs>
<linearGradient id="paint0_linear_13_6637" x1="95.7888" y1="126" x2="-5.21119" y2="-5.5" gradientUnits="userSpaceOnUse">
<stop offset="0.3061" stop-color="#5BA7FC"/>
<stop offset="1" stop-color="#69B8FC"/>
</linearGradient>
<linearGradient id="paint1_linear_13_6637" x1="9.41292" y1="7.04564" x2="58.7273" y2="78.0313" gradientUnits="userSpaceOnUse">
<stop offset="0.3061" stop-color="white"/>
<stop offset="1" stop-color="white"/>
</linearGradient>
<linearGradient id="paint2_linear_13_6637" x1="10.7888" y1="9.5" x2="25.7888" y2="34" gradientUnits="userSpaceOnUse">
<stop stop-color="#B0F4FF"/>
<stop offset="0.368525" stop-color="#80E4FD"/>
<stop offset="1" stop-color="#6CDDFC"/>
</linearGradient>
<linearGradient id="paint3_linear_13_6637" x1="11.0793" y1="38.2072" x2="59.9243" y2="38.2072" gradientUnits="userSpaceOnUse">
<stop stop-color="#6CBCFC"/>
<stop offset="1" stop-color="#458DFC"/>
</linearGradient>
<linearGradient id="paint4_linear_13_6637" x1="35.1137" y1="15.5844" x2="59.9244" y2="15.5844" gradientUnits="userSpaceOnUse">
<stop stop-color="#6CBCFC"/>
<stop offset="1" stop-color="#458DFC"/>
</linearGradient>
<linearGradient id="paint5_linear_13_6637" x1="35.1137" y1="23.2616" x2="52.9145" y2="23.2616" gradientUnits="userSpaceOnUse">
<stop stop-color="#6CBCFC"/>
<stop offset="1" stop-color="#458DFC"/>
</linearGradient>
<linearGradient id="paint6_linear_13_6637" x1="11.0793" y1="46.8317" x2="59.9243" y2="46.8317" gradientUnits="userSpaceOnUse">
<stop stop-color="#6CBCFC"/>
<stop offset="1" stop-color="#458DFC"/>
</linearGradient>
<linearGradient id="paint7_linear_13_6637" x1="11.0793" y1="55.4562" x2="59.9243" y2="55.4562" gradientUnits="userSpaceOnUse">
<stop stop-color="#6CBCFC"/>
<stop offset="1" stop-color="#458DFC"/>
</linearGradient>
<linearGradient id="paint8_linear_13_6637" x1="11.0793" y1="64.0806" x2="59.9243" y2="64.0806" gradientUnits="userSpaceOnUse">
<stop stop-color="#6CBCFC"/>
<stop offset="1" stop-color="#458DFC"/>
</linearGradient>
<linearGradient id="paint9_linear_13_6637" x1="11.0793" y1="72.7051" x2="59.9243" y2="72.7051" gradientUnits="userSpaceOnUse">
<stop stop-color="#6CBCFC"/>
<stop offset="1" stop-color="#458DFC"/>
</linearGradient>
<linearGradient id="paint10_linear_13_6637" x1="11.0793" y1="81.3296" x2="59.9243" y2="81.3296" gradientUnits="userSpaceOnUse">
<stop stop-color="#6CBCFC"/>
<stop offset="1" stop-color="#458DFC"/>
</linearGradient>
<clipPath id="clip0_13_6637">
<rect width="69.4225" height="95" fill="white" transform="translate(0.788818)"/>
</clipPath>
</defs>
</svg>
